<svg id="Logo" xmlns="http://www.w3.org/2000/svg" width="96" height="24" viewBox="0 0 96 24">
  <defs>
    <style>
      .cls-1 {
        fill-rule: evenodd;
      }
    </style>
  </defs>
  <path id="booop" class="cls-1" d="M7.062,18.062A6.062,6.062,0,0,1,1,12c0-.028,0-0.056,0-0.085H1V2.83H4.006V6.764A6.062,6.062,0,1,1,7.062,18.062Zm0-9.093A3.031,3.031,0,1,0,10.094,12,3.031,3.031,0,0,0,7.062,8.969ZM20.5,5.924a6.066,6.066,0,1,1-6.066,6.066A6.066,6.066,0,0,1,20.5,5.924Zm0,3.033a3.033,3.033,0,1,1-3.033,3.033A3.033,3.033,0,0,1,20.5,8.957ZM33.136,5.93A6.066,6.066,0,1,1,27.07,12,6.066,6.066,0,0,1,33.136,5.93Zm0,3.033A3.033,3.033,0,1,1,30.1,12,3.033,3.033,0,0,1,33.136,8.963Zm12.643-3.04a6.066,6.066,0,1,1-6.066,6.066A6.066,6.066,0,0,1,45.779,5.923Zm0,3.033a3.033,3.033,0,1,1-3.033,3.033A3.033,3.033,0,0,1,45.779,8.956Zm13.43-3.018A6.062,6.062,0,0,0,53.146,12c0,0.028,0,.056,0,0.085h0V21.17h3.006V17.236A6.062,6.062,0,1,0,59.209,5.938Zm0,9.093A3.031,3.031,0,1,1,62.24,12,3.031,3.031,0,0,1,59.209,15.031Z" transform="translate(-0.016 0)"/>
  <path id="导航" class="cls-1" d="M76.76,7.258v0.6H70.9v-0.6H76.76Zm-4.09,2.956c-1.443,0-1.751-.084-1.765-0.616h7.536c-0.14.532-.406,0.616-1.429,0.616H72.669Zm4.553,1.611c2.129,0,2.871-.294,3.138-1.709A6.638,6.638,0,0,1,78.539,9.6h0.224V5.535h-10V9.583c0,1.793.938,2.241,3.908,2.241h4.553Zm3.236,0.925H77.684V12.1H75.569v0.644H67.907v1.877h2.451l-0.714.672a10.774,10.774,0,0,1,2.479,2.185l1.471-1.415a8.883,8.883,0,0,0-1.667-1.443h3.642v1.9c0,0.21-.1.28-0.392,0.28-0.266,0-1.443,0-2.213-.042a7.324,7.324,0,0,1,.672,1.821,10.375,10.375,0,0,0,3.04-.266A1.476,1.476,0,0,0,77.684,16.6V14.626h2.773V12.749Zm14.28-5.337h-3.5l0.953-.28a16.712,16.712,0,0,0-.728-1.989l-1.989.5a16.278,16.278,0,0,1,.588,1.765H87.538V9.177h7.2V7.412ZM84.12,13.267l0.014-.532h1.513v1.709c-0.182-.476-0.434-1.051-0.672-1.527Zm0.014-3.418A10.9,10.9,0,0,1,84.47,11l1.177-.5v0.644H84.134V9.849Zm1.513,0.364a13.011,13.011,0,0,0-.6-1.583l-0.91.35V8.491h1.513v1.723ZM93.533,16.8a0.076,0.076,0,0,1-.084-0.07,3.608,3.608,0,0,1-.014-0.5V10.046H88.378V12.9a7.3,7.3,0,0,1-.995,4.244c0.014-.14.014-0.308,0.014-0.476V6.936H85.535c0.154-.42.322-0.9,0.49-1.387l-2.031-.308a16.046,16.046,0,0,1-.252,1.695H82.383v4.2H81.5v1.6h0.882a10.28,10.28,0,0,1-.966,5.015,7.479,7.479,0,0,1,1.527.98,10.672,10.672,0,0,0,1.135-4.678,9.113,9.113,0,0,1,.476,1.387l1.093-.49v1.7a0.172,0.172,0,0,1-.2.21c-0.154,0-.588.014-0.966-0.014a5.829,5.829,0,0,1,.5,1.709,3.341,3.341,0,0,0,1.835-.336,1.071,1.071,0,0,0,.434-0.532,7.5,7.5,0,0,1,1.387.966c1.359-1.485,1.6-3.936,1.6-5.715V11.8h1.317v4.539a2.4,2.4,0,0,0,.35,1.723,1.419,1.419,0,0,0,1.009.406h0.672a1.289,1.289,0,0,0,.826-0.252,1.531,1.531,0,0,0,.448-0.784,15.19,15.19,0,0,0,.154-1.947,4.583,4.583,0,0,1-1.233-.686c0,0.7-.014,1.261-0.028,1.513a1.848,1.848,0,0,1-.07.434,0.087,0.087,0,0,1-.084.056h-0.07Z" transform="translate(-0.016 0)"/>
</svg>
